<mxfile host="app.diagrams.net" modified="2024-03-04T16:51:59.986Z" agent="Mozilla/5.0 (Windows NT 10.0; Win64; x64) AppleWebKit/537.36 (KHTML, like Gecko) Chrome/122.0.0.0 Safari/537.36" etag="UNG8nq0jJGXlI0vz179Q" version="24.0.1" type="device">
  <diagram name="Page-1" id="rnEnxswCoZuh9EXWdwKD">
    <mxGraphModel dx="2578" dy="1077" grid="1" gridSize="10" guides="1" tooltips="1" connect="1" arrows="1" fold="1" page="1" pageScale="1" pageWidth="850" pageHeight="1100" math="0" shadow="0">
      <root>
        <mxCell id="0" />
        <mxCell id="1" parent="0" />
        <mxCell id="UlEFh33E9ns1Mz3-P-hS-1" value="Phext" style="rounded=1;whiteSpace=wrap;html=1;fillColor=#dae8fc;strokeColor=#6c8ebf;fontStyle=1" vertex="1" parent="1">
          <mxGeometry x="240" y="480" width="120" height="120" as="geometry" />
        </mxCell>
        <mxCell id="UlEFh33E9ns1Mz3-P-hS-2" value="" style="curved=1;endArrow=classic;html=1;rounded=0;exitX=-0.017;exitY=0.519;exitDx=0;exitDy=0;exitPerimeter=0;entryX=1.015;entryY=0.433;entryDx=0;entryDy=0;entryPerimeter=0;" edge="1" parent="1" source="UlEFh33E9ns1Mz3-P-hS-1" target="UlEFh33E9ns1Mz3-P-hS-10">
          <mxGeometry width="50" height="50" relative="1" as="geometry">
            <mxPoint x="160" y="580" as="sourcePoint" />
            <mxPoint x="40" y="600" as="targetPoint" />
            <Array as="points">
              <mxPoint x="210" y="580" />
              <mxPoint x="160" y="530" />
            </Array>
          </mxGeometry>
        </mxCell>
        <mxCell id="UlEFh33E9ns1Mz3-P-hS-3" value="" style="curved=1;endArrow=classic;html=1;rounded=0;exitX=0.046;exitY=0.969;exitDx=0;exitDy=0;exitPerimeter=0;entryX=0.5;entryY=0;entryDx=0;entryDy=0;" edge="1" parent="1" source="UlEFh33E9ns1Mz3-P-hS-1" target="UlEFh33E9ns1Mz3-P-hS-19">
          <mxGeometry width="50" height="50" relative="1" as="geometry">
            <mxPoint x="308" y="602" as="sourcePoint" />
            <mxPoint x="120" y="720" as="targetPoint" />
            <Array as="points">
              <mxPoint x="200" y="650" />
              <mxPoint x="170" y="630" />
            </Array>
          </mxGeometry>
        </mxCell>
        <mxCell id="UlEFh33E9ns1Mz3-P-hS-4" value="" style="curved=1;endArrow=classic;html=1;rounded=0;exitX=0.032;exitY=0.045;exitDx=0;exitDy=0;exitPerimeter=0;entryX=0.5;entryY=1;entryDx=0;entryDy=0;" edge="1" parent="1" source="UlEFh33E9ns1Mz3-P-hS-1" target="UlEFh33E9ns1Mz3-P-hS-8">
          <mxGeometry width="50" height="50" relative="1" as="geometry">
            <mxPoint x="308" y="432" as="sourcePoint" />
            <mxPoint x="40" y="400" as="targetPoint" />
            <Array as="points">
              <mxPoint x="200" y="490" />
              <mxPoint x="160" y="440" />
            </Array>
          </mxGeometry>
        </mxCell>
        <mxCell id="UlEFh33E9ns1Mz3-P-hS-5" value="" style="curved=1;endArrow=classic;html=1;rounded=0;exitX=1;exitY=0.5;exitDx=0;exitDy=0;entryX=0.225;entryY=-0.089;entryDx=0;entryDy=0;entryPerimeter=0;" edge="1" parent="1" source="UlEFh33E9ns1Mz3-P-hS-1" target="UlEFh33E9ns1Mz3-P-hS-7">
          <mxGeometry width="50" height="50" relative="1" as="geometry">
            <mxPoint x="556" y="461" as="sourcePoint" />
            <mxPoint x="600" y="480" as="targetPoint" />
            <Array as="points">
              <mxPoint x="450" y="510" />
              <mxPoint x="500" y="450" />
            </Array>
          </mxGeometry>
        </mxCell>
        <mxCell id="UlEFh33E9ns1Mz3-P-hS-6" value="" style="curved=1;endArrow=classic;html=1;rounded=0;entryX=0.5;entryY=0;entryDx=0;entryDy=0;" edge="1" parent="1" source="UlEFh33E9ns1Mz3-P-hS-1" target="UlEFh33E9ns1Mz3-P-hS-17">
          <mxGeometry width="50" height="50" relative="1" as="geometry">
            <mxPoint x="340" y="710" as="sourcePoint" />
            <mxPoint x="600" y="680" as="targetPoint" />
            <Array as="points">
              <mxPoint x="400" y="650" />
              <mxPoint x="450" y="640" />
            </Array>
          </mxGeometry>
        </mxCell>
        <mxCell id="UlEFh33E9ns1Mz3-P-hS-7" value="&lt;font style=&quot;font-size: 18px;&quot;&gt;Quines&lt;/font&gt;" style="rounded=1;whiteSpace=wrap;html=1;fillColor=#f8cecc;strokeColor=#b85450;fontStyle=1" vertex="1" parent="1">
          <mxGeometry x="560" y="520" width="120" height="60" as="geometry" />
        </mxCell>
        <mxCell id="UlEFh33E9ns1Mz3-P-hS-8" value="&lt;font style=&quot;font-size: 18px;&quot;&gt;Scalable&lt;/font&gt;" style="rounded=1;whiteSpace=wrap;html=1;fillColor=#f8cecc;strokeColor=#b85450;fontStyle=1" vertex="1" parent="1">
          <mxGeometry x="-50" y="310" width="120" height="60" as="geometry" />
        </mxCell>
        <mxCell id="UlEFh33E9ns1Mz3-P-hS-9" value="&lt;span style=&quot;font-size: 18px;&quot;&gt;9D&lt;/span&gt;" style="rounded=1;whiteSpace=wrap;html=1;fillColor=#f8cecc;strokeColor=#b85450;fontStyle=1" vertex="1" parent="1">
          <mxGeometry x="160" y="240" width="120" height="60" as="geometry" />
        </mxCell>
        <mxCell id="UlEFh33E9ns1Mz3-P-hS-10" value="&lt;font style=&quot;font-size: 18px;&quot;&gt;Fractal&lt;/font&gt;" style="rounded=1;whiteSpace=wrap;html=1;fillColor=#f8cecc;strokeColor=#b85450;fontStyle=1" vertex="1" parent="1">
          <mxGeometry x="-50" y="520" width="120" height="60" as="geometry" />
        </mxCell>
        <mxCell id="UlEFh33E9ns1Mz3-P-hS-11" value="&lt;font style=&quot;font-size: 18px;&quot;&gt;Efficient&lt;/font&gt;" style="rounded=1;whiteSpace=wrap;html=1;fillColor=#f8cecc;strokeColor=#b85450;fontStyle=1" vertex="1" parent="1">
          <mxGeometry x="320" y="240" width="120" height="60" as="geometry" />
        </mxCell>
        <mxCell id="UlEFh33E9ns1Mz3-P-hS-12" value="" style="curved=1;endArrow=classic;html=1;rounded=0;exitX=1;exitY=0.5;exitDx=0;exitDy=0;entryX=0.5;entryY=1;entryDx=0;entryDy=0;" edge="1" parent="1" target="UlEFh33E9ns1Mz3-P-hS-11">
          <mxGeometry width="50" height="50" relative="1" as="geometry">
            <mxPoint x="320" y="480" as="sourcePoint" />
            <mxPoint x="360" y="280" as="targetPoint" />
            <Array as="points">
              <mxPoint x="340" y="380" />
              <mxPoint x="430" y="370" />
            </Array>
          </mxGeometry>
        </mxCell>
        <mxCell id="UlEFh33E9ns1Mz3-P-hS-13" value="" style="curved=1;endArrow=classic;html=1;rounded=0;exitX=1;exitY=0.5;exitDx=0;exitDy=0;entryX=0.468;entryY=0.976;entryDx=0;entryDy=0;entryPerimeter=0;" edge="1" parent="1" target="UlEFh33E9ns1Mz3-P-hS-9">
          <mxGeometry width="50" height="50" relative="1" as="geometry">
            <mxPoint x="280" y="480" as="sourcePoint" />
            <mxPoint x="240" y="280" as="targetPoint" />
            <Array as="points">
              <mxPoint x="260" y="430" />
              <mxPoint x="180" y="350" />
            </Array>
          </mxGeometry>
        </mxCell>
        <mxCell id="UlEFh33E9ns1Mz3-P-hS-14" value="" style="curved=1;endArrow=classic;html=1;rounded=0;exitX=1;exitY=0.5;exitDx=0;exitDy=0;" edge="1" parent="1">
          <mxGeometry width="50" height="50" relative="1" as="geometry">
            <mxPoint x="350" y="480" as="sourcePoint" />
            <mxPoint x="640" y="360" as="targetPoint" />
            <Array as="points">
              <mxPoint x="440" y="450" />
              <mxPoint x="480" y="340" />
            </Array>
          </mxGeometry>
        </mxCell>
        <mxCell id="UlEFh33E9ns1Mz3-P-hS-15" value="&lt;font style=&quot;font-size: 18px;&quot;&gt;Sparse&lt;/font&gt;" style="rounded=1;whiteSpace=wrap;html=1;fillColor=#f8cecc;strokeColor=#b85450;fontStyle=1" vertex="1" parent="1">
          <mxGeometry x="560" y="310" width="120" height="60" as="geometry" />
        </mxCell>
        <mxCell id="UlEFh33E9ns1Mz3-P-hS-16" value="" style="curved=1;endArrow=classic;html=1;rounded=0;" edge="1" parent="1">
          <mxGeometry width="50" height="50" relative="1" as="geometry">
            <mxPoint x="310" y="600" as="sourcePoint" />
            <mxPoint x="320" y="840" as="targetPoint" />
            <Array as="points">
              <mxPoint x="270" y="730" />
              <mxPoint x="270" y="750" />
              <mxPoint x="290" y="770" />
              <mxPoint x="320" y="770" />
            </Array>
          </mxGeometry>
        </mxCell>
        <mxCell id="UlEFh33E9ns1Mz3-P-hS-17" value="&lt;span style=&quot;font-size: 18px;&quot;&gt;Connected&lt;/span&gt;" style="rounded=1;whiteSpace=wrap;html=1;fillColor=#f8cecc;strokeColor=#b85450;fontStyle=1" vertex="1" parent="1">
          <mxGeometry x="440" y="710" width="120" height="60" as="geometry" />
        </mxCell>
        <mxCell id="UlEFh33E9ns1Mz3-P-hS-18" value="&lt;font style=&quot;font-size: 18px;&quot;&gt;Exocortex&lt;/font&gt;" style="rounded=1;whiteSpace=wrap;html=1;fontStyle=1" vertex="1" parent="1">
          <mxGeometry x="260" y="840" width="120" height="120" as="geometry" />
        </mxCell>
        <mxCell id="UlEFh33E9ns1Mz3-P-hS-19" value="&lt;font style=&quot;font-size: 18px;&quot;&gt;Subspace&lt;/font&gt;" style="rounded=1;whiteSpace=wrap;html=1;fillColor=#f8cecc;strokeColor=#b85450;fontStyle=1" vertex="1" parent="1">
          <mxGeometry x="70" y="720" width="120" height="60" as="geometry" />
        </mxCell>
        <mxCell id="UlEFh33E9ns1Mz3-P-hS-20" value="&lt;font style=&quot;font-size: 18px;&quot;&gt;Phext is 9-dimensional text using delimiters of unusual size. It leverages an extensive, yet intentionally limited, address space to make exabytes of data accessible to mere mortals.&lt;/font&gt;" style="rounded=1;whiteSpace=wrap;html=1;arcSize=5;spacingLeft=10;spacingRight=10;" vertex="1" parent="1">
          <mxGeometry x="-90" y="80" width="370" height="150" as="geometry" />
        </mxCell>
        <mxCell id="UlEFh33E9ns1Mz3-P-hS-21" value="&lt;font style=&quot;font-size: 18px;&quot;&gt;Phext is designed from the ground up for low latency and quick parsing. Think of it as giving each neuron in your brain a text file.&lt;/font&gt;" style="rounded=1;whiteSpace=wrap;html=1;arcSize=5;spacingLeft=10;spacingRight=10;" vertex="1" parent="1">
          <mxGeometry x="322" y="80" width="360" height="150" as="geometry" />
        </mxCell>
        <mxCell id="UlEFh33E9ns1Mz3-P-hS-22" value="&lt;font style=&quot;font-size: 18px;&quot;&gt;Phext documents can be simple text files - there&#39;s zero overhead. If you need additional complexity, you just add it using delimiters with varying levels of complexity.&lt;/font&gt;" style="rounded=1;whiteSpace=wrap;html=1;arcSize=5;spacingLeft=10;spacingRight=10;" vertex="1" parent="1">
          <mxGeometry x="-440" y="270" width="370" height="150" as="geometry" />
        </mxCell>
        <mxCell id="UlEFh33E9ns1Mz3-P-hS-23" value="&lt;span style=&quot;font-size: 18px;&quot;&gt;There are 9 dimension breaks that reset coordinate counters in different ways: scroll, section, chapter, book, volume, collection, series, shelf, library. Lower coordinates reset to 1 just like line breaks do in traditional text.&lt;/span&gt;" style="rounded=1;whiteSpace=wrap;html=1;arcSize=5;spacingLeft=10;spacingRight=10;" vertex="1" parent="1">
          <mxGeometry x="-430" y="475" width="370" height="150" as="geometry" />
        </mxCell>
        <mxCell id="UlEFh33E9ns1Mz3-P-hS-24" value="&lt;font style=&quot;font-size: 18px;&quot;&gt;Subspace is a traditional 1D buffer of plain text with 9 additional bytes reserved for delimiters of unusual size. Each delimiter works at a different scale (3D, 4D, 5D, 6D, 7D, 8D, 9D, 10D, or&amp;nbsp;&lt;/font&gt;&lt;span style=&quot;font-size: 18px; background-color: initial;&quot;&gt;11D).&lt;/span&gt;" style="rounded=1;whiteSpace=wrap;html=1;arcSize=5;spacingLeft=10;spacingRight=10;" vertex="1" parent="1">
          <mxGeometry x="-320" y="710" width="370" height="150" as="geometry" />
        </mxCell>
        <mxCell id="UlEFh33E9ns1Mz3-P-hS-25" value="&lt;span style=&quot;font-size: 18px;&quot;&gt;The first emergent property of phext is the ability to think concretely about building the exocortex - a literal extension of your mind, running on commodity PC hardware.&lt;/span&gt;" style="rounded=1;whiteSpace=wrap;html=1;arcSize=5;spacingLeft=10;spacingRight=10;" vertex="1" parent="1">
          <mxGeometry x="120" y="970" width="370" height="150" as="geometry" />
        </mxCell>
        <mxCell id="UlEFh33E9ns1Mz3-P-hS-26" value="&lt;span style=&quot;font-size: 18px;&quot;&gt;Nodes within the phext graph are located near each other according to their coordinates. The space is entirely addressed implicitly.&lt;/span&gt;" style="rounded=1;whiteSpace=wrap;html=1;arcSize=5;spacingLeft=10;spacingRight=10;" vertex="1" parent="1">
          <mxGeometry x="570" y="690" width="370" height="150" as="geometry" />
        </mxCell>
        <mxCell id="UlEFh33E9ns1Mz3-P-hS-27" value="&lt;span style=&quot;font-size: 18px;&quot;&gt;It is trivial to encode a phext processor within a phext document. This allows us to start evolving software rather than build it.&lt;/span&gt;" style="rounded=1;whiteSpace=wrap;html=1;arcSize=5;spacingLeft=10;spacingRight=10;" vertex="1" parent="1">
          <mxGeometry x="690" y="500" width="370" height="125" as="geometry" />
        </mxCell>
        <mxCell id="UlEFh33E9ns1Mz3-P-hS-28" value="&lt;span style=&quot;font-size: 18px;&quot;&gt;Phext documents are sparse trees by design - we intend for phext to become the baseline for BAAA (Brain as a Service).&lt;/span&gt;" style="rounded=1;whiteSpace=wrap;html=1;arcSize=5;spacingLeft=10;spacingRight=10;" vertex="1" parent="1">
          <mxGeometry x="700" y="265" width="370" height="150" as="geometry" />
        </mxCell>
      </root>
    </mxGraphModel>
  </diagram>
</mxfile>
